<svg width="1600" height="1200" viewBox="0 0 1600 1200" fill="none" xmlns="http://www.w3.org/2000/svg">
  <rect width="1600" height="1200" fill="#ECF1F5"/>
  <g opacity="0.32" stroke="#9FB2C1" stroke-width="1">
    <path d="M0 140H1600"/>
    <path d="M0 260H1600"/>
    <path d="M0 380H1600"/>
    <path d="M0 500H1600"/>
    <path d="M0 620H1600"/>
    <path d="M0 740H1600"/>
    <path d="M0 860H1600"/>
    <path d="M0 980H1600"/>
    <path d="M0 1100H1600"/>
    <path d="M120 0V1200"/>
    <path d="M280 0V1200"/>
    <path d="M440 0V1200"/>
    <path d="M600 0V1200"/>
    <path d="M760 0V1200"/>
    <path d="M920 0V1200"/>
    <path d="M1080 0V1200"/>
    <path d="M1240 0V1200"/>
    <path d="M1400 0V1200"/>
    <path d="M1560 0V1200"/>
  </g>
  <g opacity="0.5" stroke="#BFD0DC">
    <path d="M-120 220L360 -80"/>
    <path d="M80 1220L980 620"/>
    <path d="M720 1280L1520 720"/>
    <path d="M420 960L1200 420"/>
  </g>
</svg>
