<svg xmlns="http://www.w3.org/2000/svg" id="seal" viewBox="0 0 1150 320">
	<defs>
		<radialGradient id="radial-gradient-light" cx="160" cy="140" r="140" gradientUnits="userSpaceOnUse">
			<stop offset="0" stop-color="#84ff00"/>
			<stop offset="0.8" stop-color="#66f700"/>
			<stop offset="1" stop-color="#66f700"/>
		</radialGradient>
		<radialGradient id="radial-gradient-dark" cx="160" cy="140" r="120" gradientUnits="userSpaceOnUse">
			<stop offset="0" stop-color="#66f700"/>
			<stop offset="0.90" stop-color="#47ac00"/>
			<stop offset="1" stop-color="#47ac00"/>
		</radialGradient>
	</defs>
	<title>seal</title>
	<rect id="background" width="1150" height="320" x="0" y="0" fill="transparent" fill-opacity="1.0" />
	<rect id="black-strip" width="1130" height="180" x="10" y="30" fill="#020202" rx="32" ry="32" />
	<text id="auditing" x="270" y="300" font-family="PF Tempesta Seven Condensed, sans-serif" font-size="80px" fill="#6c6c6c" text-rendering="optimizeLegibility" shape-rendering="crispEdges">AUDITADO EM 27 FEV</text>
	<g id="siteblindado" fill="#fff" stroke="#000" stroke-miterlimit="10" shape-rendering="geometricPrecision">
		<path d="M313,155.31c4.26,2.6,11.52,4.52,17.51,4.52,9.78,0,14.52-5.57,14.52-13.22,0-8.52-4.74-12.7-13.73-19.13-14.52-9.74-20-22.09-20-32.7,0-18.78,11.36-34.43,33.61-34.43,6.94,0,13.57,2.08,16.72,4.17l-3.31,19.65a23.67,23.67,0,0,0-13.57-4c-8.83,0-13.09,5.92-13.09,12.18,0,7,3.15,10.61,14.67,18.26,14,9.39,19.25,21.22,19.25,33.56,0,21.4-14.36,35.48-35.19,35.48-8.52,0-16.88-2.43-20.35-4.69Z" />
		<path d="M398.19,61.39V178.61H377.52V61.39Z" />
		<path d="M428.16,82.44H409.39v-21h58.37v21H448.83v96.17H428.16Z" />
		<path d="M523.61,127.13h-24.3v31.65h27.46v19.83H478.64V61.39h46.23V81.22H499.31v27h24.3Z" />
		<path d="M565.88,63.13c6.32-1.56,14.52-2.26,23.51-2.26,9.94,0,19.57,1.39,27,8.35,5.68,5.21,8,13,8,21.22,0,10.43-4.89,20.52-15.46,25.56v.7c12.3,3.82,18.93,15.13,18.93,28,0,9.73-2.84,17.21-7.89,23-6.31,7.65-17,11.83-34.87,11.83a136.3,136.3,0,0,1-19.25-1.22Zm20.67,46.43H591c7.42,0,13.1-7,13.1-16.52,0-8.52-3.63-15.13-12.15-15.13a15.21,15.21,0,0,0-5.37.7Zm0,52a17.58,17.58,0,0,0,4.58.35c8.36,0,15.3-5.56,15.3-17.56,0-11.65-7.26-17.74-15.46-17.91h-4.42Z" />
		<path d="M642.08,61.39h20.67V159.3H690v19.31h-48Z" />
		<path d="M722.7,61.39V178.61H702V61.39Z" />
		<path d="M741.15,178.61V61.39h18.93l16.41,45.91c3.16,9,8.36,24.18,11.36,34.27h.32c-.63-12.35-2-32.7-2-54.27V61.39h18.14V178.61H785.33l-16.25-44.52c-3.47-9.92-8.37-24.7-10.73-35.31H758c.48,11.83,1.27,29.92,1.27,53.39v26.44Z" />
		<path d="M822.56,63.13a86.58,86.58,0,0,1,21-2.26c13.41,0,22.72,3.48,29.5,10.43,9.15,9,13.89,24.53,13.89,47.31,0,23.65-5.53,40.52-14.83,49.56-7.1,7.66-17.67,11.31-32.51,11.31a140,140,0,0,1-17-1.22Zm20.66,97.39a12.28,12.28,0,0,0,3.63.35c9.94,0,18.62-10.78,18.62-43.13,0-24-5.68-38.61-18.14-38.61a10.8,10.8,0,0,0-4.11.52Z" />
		<path d="M914.37,151.83l-4.73,26.78h-20l23-117.22h24.77l20.67,117.22H938l-4.57-26.78Zm17.2-17.74-3.47-24.53c-1.1-7.13-2.52-18.78-3.47-26.6h-.47c-1.11,7.82-2.69,20-3.79,26.78l-3.94,24.35Z" />
		<path d="M969.75,63.13a86.58,86.58,0,0,1,21-2.26c13.41,0,22.72,3.48,29.5,10.43,9.15,9,13.89,24.53,13.89,47.31,0,23.65-5.52,40.52-14.83,49.56-7.1,7.66-17.67,11.31-32.5,11.31a140.07,140.07,0,0,1-17-1.22Zm20.67,97.39a12.18,12.18,0,0,0,3.62.35c9.94,0,18.62-10.78,18.62-43.13,0-24-5.68-38.61-18.14-38.61a10.72,10.72,0,0,0-4.1.52Z" />
		<path d="M1110,117.91c0,44.18-14.2,62.09-34.39,62.09-24.14,0-33.61-28.17-33.61-60.35,0-32,11.52-59.65,35-59.65C1102.74,60,1110,91.13,1110,117.91ZM1063.46,120c0,26.61,4.57,40.17,12.94,40.17,8.67,0,12-17.39,12-41.21,0-20.53-2.84-39.13-12.15-39.13C1068,79.83,1063.46,94.78,1063.46,120Z" />
	</g>
	<g id="shield" shape-rendering="geometricPrecision">
		<path fill="url(#radial-gradient-light)" d="M43.5,46.8c-6.4,34.2-6.2,64.8-1.7,92.1c0.5,2.8,0.3,1.7,0.3,1.7h118V10C85.5,21.6,43.5,46.8,43.5,46.8z" />
		<path fill="url(#radial-gradient-dark)" d="M276.5,46.8c6.5,34.9,6.2,66.1,1.5,93.7H160L160,10C234.5,21.6,276.5,46.8,276.5,46.8z" />
		<path fill="url(#radial-gradient-dark)" d="M160,310V140.6H42C60.2,255,160,310,160,310z" />
		<path fill="url(#radial-gradient-light)" d="M269.9,173.5c0,0,6.8-23.9,8.1-32.9H160V310C160,310,239.5,266.7,269.9,173.5z" />
	</g>
</svg>
