<?xml version="1.0" encoding="UTF-8"?>
<svg id="Camada_2" data-name="Camada 2" xmlns="http://www.w3.org/2000/svg" viewBox="0 0 1330.8 507.59">
  <defs>
    <style>
      .cls-1 {
        fill: #98de62;
      }
    </style>
  </defs>
  <g id="Camada_1-2" data-name="Camada 1">
    <g>
      <path class="cls-1" d="M813.19,399.75v-35.94c-21.96,22.38-50.68,35.94-82.1,35.94-69.01,0-124.99-65.4-124.99-146.02s55.96-146.02,124.99-146.02c31.42,0,60.14,13.56,82.1,35.94,0-19.85,16.13-35.94,36.03-35.94h49.73v292.06h-85.76v-.02ZM756.46,193.35c-36.6-2.31-66.79,27.79-64.48,64.3,1.92,30.1,26.4,54.54,56.58,56.43,36.61,2.31,66.79-27.79,64.48-64.3-1.92-30.1-26.4-54.54-56.58-56.46v.03Z"/>
      <path class="cls-1" d="M1015,143.65c21.96-22.38,50.67-35.94,82.1-35.94,69,0,124.99,65.4,124.99,146.02s-55.96,146.02-124.99,146.02c-31.43,0-60.14-13.56-82.1-35.94v143.78h-85.76V107.71h49.73c19.9,0,36.03,16.1,36.03,35.94ZM1136.2,257.66c2.32-36.51-27.86-66.61-64.47-64.3-30.18,1.91-54.69,26.33-56.58,56.43-2.32,36.51,27.86,66.61,64.47,64.3,30.18-1.91,54.69-26.33,56.58-56.43Z"/>
      <path class="cls-1" d="M1330.8,0h-85.76v85.54h85.76V0Z"/>
      <path class="cls-1" d="M1330.78,107.71v292.06h-85.76v-245.54c0-25.68,20.89-46.52,46.64-46.52h39.12Z"/>
      <path class="cls-1" d="M292.03,135.98c-4.68,0-6.42-6.51-5.53-9.99,2.22-8.69,7.1-7.7,13.82-7.7h147.6c5.73,0,12,.65,17.51-1.61,5.95-2.43,10.73-8.07,14.17-13.29.32-.47,2.61-4.02,4.41-9.16,1.34-3.88,2.19-6.41.97-8.02-1.07-1.42-3.14-1.34-7.87-1.29-3.86.02-7.72,0-11.58,0h-234.93c-4.88,0-13.17,1.71-17.58-.92-5.23-3.13-3.96-11.67,1.69-14.65,1.79-.94,5.95-.27,7.94-.27,14.72-.1,29.43,0,44.15,0h249.44c4.81,0,9.16.6,13.57-1.61,11.08-5.59,18.1-17.88,18.18-30.1v-2.11c0-2.93-2.37-5.32-5.28-5.32-39.92-.12-79.84-.67-119.75-.67H128.4c-39.89,0-55.71,33.88-65.67,65.32-1.49,4.72-20.17,68.65-19.9,68.73h136.79c-29.14,28.71-59.02,58.12-89.25,87.63l-.42.42c-5.13,5.12-10.38,10.21-15.44,15.15-13.1,12.74-26.65,25.88-39.97,41.06l.57.5C13.4,328.35,0,356.22,0,386.96v9.36h307.12c39,0,54.49-30.75,64.2-59.29,1.44-4.27,19.72-62.32,19.45-62.37h-166.45c14.99-14.75,29.86-29.38,44.48-43.79,22.19-21.86,44.82-44.16,67.58-66.47l50.63.15c18.95.05,34.36-7.75,34.44-26.68l.1-1.24c0-1.04-.95-.65-1.97-.65h-127.5l-.05-.02Z"/>
      <path class="cls-1" d="M574.05,192.51h-148.09v84.4h148.09v-84.4Z"/>
    </g>
  </g>
</svg>